<svg id="illustration-laptop-desktop" xmlns="http://www.w3.org/2000/svg" xmlns:xlink="http://www.w3.org/1999/xlink" width="958.9" height="786" viewBox="0 0 958.9 786">
  <defs>
    <linearGradient id="linear-gradient" x1="-0.195" y1="-0.077" x2="1.305" y2="0.825" gradientUnits="objectBoundingBox">
      <stop offset="0" stop-color="#ffc300"/>
      <stop offset="1" stop-color="#ff0045"/>
    </linearGradient>
    <filter id="Path_5" x="238.675" y="244.293" width="626" height="395.838" filterUnits="userSpaceOnUse">
      <feOffset dx="10" dy="20" input="SourceAlpha"/>
      <feGaussianBlur stdDeviation="20" result="blur"/>
      <feFlood flood-opacity="0.161"/>
      <feComposite operator="in" in2="blur"/>
      <feComposite in="SourceGraphic"/>
    </filter>
    <filter id="Path_3" x="140" y="532.5" width="818.9" height="137.105" filterUnits="userSpaceOnUse">
      <feOffset dx="10" dy="20" input="SourceAlpha"/>
      <feGaussianBlur stdDeviation="20" result="blur-2"/>
      <feFlood flood-opacity="0.251"/>
      <feComposite operator="in" in2="blur-2"/>
      <feComposite in="SourceGraphic"/>
    </filter>
  </defs>
  <rect id="Rectangle_9" data-name="Rectangle 9" width="665" height="667" rx="332.5" transform="translate(59.5 59.5)" fill="none" stroke="#2d2e40" stroke-width="1" opacity="0.5"/>
  <rect id="Rectangle_10" data-name="Rectangle 10" width="783" height="785" rx="391.5" transform="translate(0.5 0.5)" fill="none" stroke="#2d2e40" stroke-width="1" opacity="0.25"/>
  <rect id="Rectangle_11" data-name="Rectangle 11" width="550" height="552" rx="275" transform="translate(117 117)" fill="#2d2e40" opacity="0.08"/>
  <g id="Group_8" data-name="Group 8" transform="translate(190 192)">
    <rect id="Rectangle_12" data-name="Rectangle 12" width="538" height="368" rx="12" transform="translate(82 16)" fill="#535353"/>
    <rect id="Rectangle_13" data-name="Rectangle 13" width="532" height="362" rx="10" transform="translate(85 19)" fill="#1d1d25"/>
    <g id="Group_5" data-name="Group 5" transform="translate(99 32)">
      <rect id="Rectangle_14" data-name="Rectangle 14" width="506" height="335.872" rx="3" fill="url(#linear-gradient)"/>
      <g transform="matrix(1, 0, 0, 1, -289, -224)" filter="url(#Path_5)">
        <path id="Path_5-2" data-name="Path 5" d="M3,0H503a3,3,0,0,1,3,3V272.838a3,3,0,0,1-3,3H3a3,3,0,0,1-3-3V3A3,3,0,0,1,3,0Z" transform="translate(288.68 284.29)" fill="#f9f6f6"/>
      </g>
      <g id="Group_4" data-name="Group 4">
        <g id="Group_3" data-name="Group 3" transform="translate(71.475 37.46)">
          <rect id="Rectangle_16" data-name="Rectangle 16" width="106.646" height="256.541" rx="3" fill="#fff"/>
          <rect id="Rectangle_17" data-name="Rectangle 17" width="238.251" height="256.541" rx="3" transform="translate(124.798)" fill="#fff"/>
          <rect id="Rectangle_18" data-name="Rectangle 18" width="217.83" height="60.162" rx="3" transform="translate(135.009 13.622)" fill="#e7e7e7"/>
          <rect id="Rectangle_19" data-name="Rectangle 19" width="64.668" height="60.162" rx="3" transform="translate(135.009 86.27)" fill="#e7e7e7"/>
          <rect id="Rectangle_20" data-name="Rectangle 20" width="137.278" height="60.162" rx="3" transform="translate(215.561 86.27)" fill="#e7e7e7"/>
        </g>
      </g>
    </g>
    <g id="Group_6" data-name="Group 6" transform="translate(349)" opacity="0.098">
      <rect id="Rectangle_21" data-name="Rectangle 21" width="13.6" height="3" rx="1.5" fill="#4a5166"/>
      <rect id="Rectangle_22" data-name="Rectangle 22" width="3.2" height="3" rx="1.5" transform="translate(16.8)" fill="#4a5166"/>
    </g>
    <g id="Group_7" data-name="Group 7" transform="translate(0 422.908)">
      <g transform="matrix(1, 0, 0, 1, -190, -614.91)" filter="url(#Path_3)">
        <path id="Path_3-2" data-name="Path 3" d="M3,0H695.9a3,3,0,0,1,3,3V17.1H0V3A3,3,0,0,1,3,0Z" transform="translate(190 572.5)" fill="#52526f"/>
      </g>
      <rect id="Rectangle_23" data-name="Rectangle 23" width="114.156" height="9.263" rx="4.632" transform="translate(292.371 -41.908)" fill="#2f2f47"/>
    </g>
    <path id="Path_4" data-name="Path 4" d="M0,397H699a6,6,0,0,1-6,6H6a6,6,0,0,1-6-6Z" fill="#393a56"/>
  </g>
</svg>
