<svg xmlns="http://www.w3.org/2000/svg" xmlns:xlink="http://www.w3.org/1999/xlink" width="935" height="882" viewBox="0 0 935 882">
  <defs>
    <linearGradient id="linear-gradient" x1="-0.092" y1="-0.285" x2="1.204" y2="0.915" gradientUnits="objectBoundingBox">
      <stop offset="0" stop-color="#ffc300"/>
      <stop offset="1" stop-color="#ff0045"/>
    </linearGradient>
    <filter id="Rectangle_5" x="20" y="215" width="702" height="487" filterUnits="userSpaceOnUse">
      <feOffset dy="3" input="SourceAlpha"/>
      <feGaussianBlur stdDeviation="10" result="blur"/>
      <feFlood flood-opacity="0.161"/>
      <feComposite operator="in" in2="blur"/>
      <feComposite in="SourceGraphic"/>
    </filter>
    <filter id="Rectangle_8" x="0" y="318.5" width="762" height="431" filterUnits="userSpaceOnUse">
      <feOffset dx="10" dy="20" input="SourceAlpha"/>
      <feGaussianBlur stdDeviation="20" result="blur-2"/>
      <feFlood flood-opacity="0.161"/>
      <feComposite operator="in" in2="blur-2"/>
      <feComposite in="SourceGraphic"/>
    </filter>
    <linearGradient id="linear-gradient-2" x1="0.5" x2="0.5" y2="1" gradientUnits="objectBoundingBox">
      <stop offset="0" stop-opacity="0"/>
      <stop offset="1" stop-color="#545454" stop-opacity="0"/>
    </linearGradient>
  </defs>
  <g id="illustration-editor-desktop" transform="translate(50)">
    <rect id="Rectangle_1" data-name="Rectangle 1" width="600" height="602" rx="300" transform="translate(145 144)" fill="#2d2e40" opacity="0.08"/>
    <rect id="Rectangle_2" data-name="Rectangle 2" width="679" height="681" rx="339.5" transform="translate(105.5 100.5)" fill="none" stroke="#2d2e40" stroke-width="1" opacity="0.5"/>
    <rect id="Rectangle_3" data-name="Rectangle 3" width="879" height="881" rx="439.5" transform="translate(5.5 0.5)" fill="none" stroke="#2d2e40" stroke-width="1" opacity="0.25"/>
    <g id="Group_2" data-name="Group 2" transform="translate(0 242)">
      <g id="Group_1" data-name="Group 1">
        <rect id="Rectangle_4" data-name="Rectangle 4" width="642" height="427" rx="32"/>
        <g transform="matrix(1, 0, 0, 1, -50, -242)" filter="url(#Rectangle_5)">
          <rect id="Rectangle_5-2" data-name="Rectangle 5" width="642" height="427" rx="28" transform="translate(50 242)" fill="url(#linear-gradient)"/>
        </g>
      </g>
      <g transform="matrix(1, 0, 0, 1, -50, -242)" filter="url(#Rectangle_8)">
        <path id="Rectangle_8-2" data-name="Rectangle 8" d="M1,0H642a0,0,0,0,1,0,0V292a19,19,0,0,1-19,19H19A19,19,0,0,1,0,292V1A1,1,0,0,1,1,0Z" transform="translate(50 358.5)" fill="#3d3d3d"/>
      </g>
      <rect id="Rectangle_6" data-name="Rectangle 6" width="135.785" height="137.165" rx="3" transform="translate(90.523 47.709)" fill="#fff"/>
      <ellipse id="Ellipse_1" data-name="Ellipse 1" cx="39.306" cy="39.36" rx="39.306" ry="39.36" transform="translate(119.11 77.528)" fill="#3d3d3d"/>
      <rect id="Rectangle_7" data-name="Rectangle 7" width="302.538" height="325.617" rx="3" transform="translate(248.939 47.709)" fill="#fff"/>
    </g>
    <path id="Path_2" data-name="Path 2" d="M209,284q70.688-110.051,104.557-118.938c33.87-8.886,23.765,83.14,72.535,72.473s54.716-103.974,91.6-108.37,56.4,80.946,72.515,88.81q16.113,7.861,39.79-34.007" transform="translate(0 242)" stroke="#707070" stroke-linecap="round" stroke-width="8" fill-rule="evenodd" fill="url(#linear-gradient-2)"/>
  </g>
</svg>
