<svg width="230" height="42" viewBox="0 0 230 42" fill="none" xmlns="http://www.w3.org/2000/svg">
<g clip-path="url(#clip0_2_2)">
<path d="M2.822 32V8.2H13.124C15.2547 8.2 17.0907 8.55133 18.632 9.254C20.1733 9.934 21.3633 10.92 22.202 12.212C23.0407 13.504 23.46 15.0453 23.46 16.836C23.46 18.604 23.0407 20.134 22.202 21.426C21.3633 22.718 20.1733 23.7153 18.632 24.418C17.0907 25.098 15.2547 25.438 13.124 25.438H5.882L8.33 22.956V32H2.822ZM8.33 23.568L5.882 20.95H12.818C14.518 20.95 15.7873 20.5873 16.626 19.862C17.4647 19.1367 17.884 18.128 17.884 16.836C17.884 15.5213 17.4647 14.5013 16.626 13.776C15.7873 13.0507 14.518 12.688 12.818 12.688H5.882L8.33 10.07V23.568ZM33.3083 32V22.276L34.5663 25.608L24.0943 8.2H29.9423L37.9663 21.562H34.6003L42.6583 8.2H48.0643L37.5923 25.608L38.8163 22.276V32H33.3083ZM50.1697 32V8.2H60.4717C62.6023 8.2 64.4383 8.55133 65.9797 9.254C67.521 9.934 68.711 10.92 69.5497 12.212C70.3883 13.504 70.8077 15.0453 70.8077 16.836C70.8077 18.604 70.3883 20.134 69.5497 21.426C68.711 22.6953 67.521 23.67 65.9797 24.35C64.4383 25.03 62.6023 25.37 60.4717 25.37H53.2297L55.6777 22.956V32H50.1697ZM65.2997 32L59.3497 23.364H65.2317L71.2497 32H65.2997ZM55.6777 23.568L53.2297 20.984H60.1657C61.8657 20.984 63.135 20.6213 63.9737 19.896C64.8123 19.148 65.2317 18.128 65.2317 16.836C65.2317 15.5213 64.8123 14.5013 63.9737 13.776C63.135 13.0507 61.8657 12.688 60.1657 12.688H53.2297L55.6777 10.07V23.568ZM86.7316 32.408C84.8503 32.408 83.1049 32.102 81.4956 31.49C79.9089 30.878 78.5263 30.0167 77.3476 28.906C76.1916 27.7953 75.2849 26.492 74.6276 24.996C73.9929 23.5 73.6756 21.868 73.6756 20.1C73.6756 18.332 73.9929 16.7 74.6276 15.204C75.2849 13.708 76.2029 12.4047 77.3816 11.294C78.5603 10.1833 79.9429 9.322 81.5296 8.71C83.1163 8.098 84.8389 7.792 86.6976 7.792C88.5789 7.792 90.3016 8.098 91.8656 8.71C93.4523 9.322 94.8236 10.1833 95.9796 11.294C97.1583 12.4047 98.0763 13.708 98.7336 15.204C99.3909 16.6773 99.7196 18.3093 99.7196 20.1C99.7196 21.868 99.3909 23.5113 98.7336 25.03C98.0763 26.526 97.1583 27.8293 95.9796 28.94C94.8236 30.028 93.4523 30.878 91.8656 31.49C90.3016 32.102 88.5903 32.408 86.7316 32.408ZM86.6976 27.716C87.7629 27.716 88.7376 27.5347 89.6216 27.172C90.5283 26.8093 91.3216 26.288 92.0016 25.608C92.6816 24.928 93.2029 24.1233 93.5656 23.194C93.9509 22.2647 94.1436 21.2333 94.1436 20.1C94.1436 18.9667 93.9509 17.9353 93.5656 17.006C93.2029 16.0767 92.6816 15.272 92.0016 14.592C91.3443 13.912 90.5623 13.3907 89.6556 13.028C88.7489 12.6653 87.7629 12.484 86.6976 12.484C85.6323 12.484 84.6463 12.6653 83.7396 13.028C82.8556 13.3907 82.0736 13.912 81.3936 14.592C80.7136 15.272 80.1809 16.0767 79.7956 17.006C79.4329 17.9353 79.2516 18.9667 79.2516 20.1C79.2516 21.2107 79.4329 22.242 79.7956 23.194C80.1809 24.1233 80.7023 24.928 81.3596 25.608C82.0396 26.288 82.8329 26.8093 83.7396 27.172C84.6463 27.5347 85.6323 27.716 86.6976 27.716ZM103.859 32V8.2H108.415L118.547 24.996H116.133L126.095 8.2H130.617L130.685 32H125.517L125.483 16.122H126.435L118.479 29.484H115.997L107.871 16.122H109.027V32H103.859ZM133.204 32L143.812 8.2H149.252L159.894 32H154.114L145.41 10.988H147.586L138.848 32H133.204ZM138.508 26.9L139.97 22.718H152.21L153.706 26.9H138.508ZM162.363 32V8.2H166.919L180.961 25.336H178.751V8.2H184.191V32H179.669L165.593 14.864H167.803V32H162.363ZM189.822 32V8.2H195.33V32H189.822ZM197.85 32L208.458 8.2H213.898L224.54 32H218.76L210.056 10.988H212.232L203.494 32H197.85ZM203.154 26.9L204.616 22.718H216.856L218.352 26.9H203.154Z" fill="#F7F7F7"/>
</g>
<defs>
<clipPath id="clip0_2_2">
<rect width="230" height="42" fill="white"/>
</clipPath>
</defs>
</svg>
